{"asset":{"version":"2.0","generator":"babylon.js glTF exporter for 3dsmax 2019 v20200615.2"},"scene":0,"scenes":[{"nodes":[0,1]}],"nodes":[{"mesh":0,"name":"default"},{"name":"Default light"}],"meshes":[{"primitives":[{"attributes":{"POSITION":1,"NORMAL":2,"TEXCOORD_0":3},"indices":0,"material":0}],"name":"default"}],"accessors":[{"bufferView":0,"componentType":5125,"count":89784,"type":"SCALAR","name":"accessorIndices"},{"bufferView":1,"componentType":5126,"count":78463,"max":[256,139.51564,256],"min":[-256,0.03051944,-256],"type":"VEC3","name":"accessorPositions"},{"bufferView":1,"byteOffset":941556,"componentType":5126,"count":78463,"type":"VEC3","name":"accessorNormals"},{"bufferView":2,"componentType":5126,"count":78463,"type":"VEC2","name":"accessorUVs"}],"bufferViews":[{"buffer":0,"byteLength":359136,"name":"bufferViewScalar"},{"buffer":0,"byteOffset":359136,"byteLength":1883112,"byteStride":12,"name":"bufferViewFloatVec3"},{"buffer":0,"byteOffset":2242248,"byteLength":627704,"byteStride":8,"name":"bufferViewFloatVec2"}],"buffers":[{"uri":"data:application/octet-stream;base64,","byteLength":2869952}],"materials":[{"pbrMetallicRoughness":{"baseColorFactor":[0.588,0.588,0.588,1],"metallicFactor":0,"roughnessFactor":0.450053632},"name":"default"}]}